<?xml version="1.0" encoding="UTF-8" standalone="no"?><!DOCTYPE svg PUBLIC "-//W3C//DTD SVG 1.1//EN" "http://www.w3.org/Graphics/SVG/1.1/DTD/svg11.dtd"><svg width="100%" height="100%" viewBox="0 0 640 640" version="1.1" xmlns="http://www.w3.org/2000/svg" xmlns:xlink="http://www.w3.org/1999/xlink" xml:space="preserve" xmlns:serif="http://www.serif.com/" style="fill-rule:evenodd;clip-rule:evenodd;stroke-linejoin:round;stroke-miterlimit:2;"><g><rect x="-79.992" y="-79.992" width="799.992" height="799.996" style="fill:#fff;fill-rule:nonzero;"/><path d="M394.14,534.534c-11.33,2.27 -15.33,-4.8 -15.33,-10.8c0,-7.33 0.27,-31.6 0.27,-61.6c-0,-20.93 -7.2,-34.67 -15.2,-41.6c49.86,-5.6 102.13,-24.53 102.13,-110.8c0,-24.53 -8.67,-44.53 -22.93,-60.26c2.27,-5.74 10,-28.54 -2.27,-59.34c0,-0 -18.81,-6 -61.47,23.07c-17.88,-5.07 -37.07,-7.47 -55.99,-7.6c-19.08,0.13 -38.15,2.53 -56.01,7.6c-42.67,-29.07 -61.47,-23.07 -61.47,-23.07c-12.13,30.93 -4.53,53.74 -2.13,59.34c-14.27,15.73 -23.06,35.73 -23.06,60.26c0,86.01 52.26,105.2 101.87,110.94c-6.4,5.6 -12.14,15.47 -14.28,30c-12.79,5.72 -45.2,15.59 -65.2,-18.68c-0,-0 -11.87,-21.59 -34.27,-23.2c0,-0 -21.861,-0.26 -1.461,13.6c-0,-0 14.671,6.93 24.801,32.81c0,-0 13.2,43.6 75.33,30.13c0.13,18.68 0.27,32.81 0.27,38.13c-0,6 -4.13,12.94 -15.34,10.8c-88.93,-29.72 -153.055,-113.86 -153.055,-212.92c-0,-124.01 100.125,-224.406 223.735,-224.406c123.6,-0 223.72,100.526 223.72,224.406c0.14,99.33 -63.87,183.46 -152.66,213.19Zm245.86,-374.54c-0,-88.394 -71.59,-159.994 -159.99,-159.994l-320,0c-88.396,0 -160.01,71.6 -160.01,159.994l-0,320c-0,88.4 71.614,160 160.01,160l320,-0c88.4,-0 159.99,-71.6 159.99,-160l-0,-320Z" style="fill:#030404;fill-rule:nonzero;"/></g></svg>