<svg width="1200" height="1200" viewBox="0 0 1200 1200" fill="none" xmlns="http://www.w3.org/2000/svg">
<mask id="mask0_409_3640" style="mask-type:alpha" maskUnits="userSpaceOnUse" x="0" y="0" width="1197" height="1197">
<circle cx="598.033" cy="598.033" r="598.033" fill="#D9D9D9"/>
</mask>
<g mask="url(#mask0_409_3640)">
<path d="M925.883 1091.76C923.138 1093.73 920.001 1095.69 917.256 1097.65C914.118 1099.61 911.373 1101.57 908.236 1103.14C905.491 1104.71 903.138 1106.27 900.393 1107.84C900.001 1108.24 899.609 1108.24 899.216 1108.63C890.197 1114.12 880.785 1119.22 871.373 1123.92C868.628 1125.49 865.491 1127.06 862.746 1128.24C862.746 1128.24 862.354 1128.63 861.962 1128.63C858.824 1130.2 855.687 1131.76 852.55 1133.33C846.275 1136.47 839.609 1139.22 833.334 1141.96C830.197 1143.53 826.667 1144.71 823.53 1145.88C820.393 1147.06 816.864 1148.63 813.726 1149.8C810.589 1150.98 807.06 1152.55 803.922 1153.73C803.922 1153.73 803.922 1153.73 803.53 1153.73C800.393 1154.9 796.864 1156.08 793.726 1157.25C786.667 1159.61 779.216 1161.96 772.158 1164.31C769.805 1165.1 767.06 1165.88 764.707 1166.67C757.256 1169.02 749.805 1170.98 742.354 1172.55C739.609 1173.33 736.864 1173.73 733.726 1174.51C726.667 1176.08 719.216 1177.65 712.158 1179.22C710.589 1179.61 709.413 1179.61 707.844 1180C705.491 1180.39 702.746 1180.78 700.393 1181.18C696.864 1181.57 693.726 1182.35 690.197 1182.74C688.628 1183.14 687.06 1183.14 685.491 1183.53C683.53 1183.92 681.177 1184.31 678.824 1184.31C672.55 1185.1 665.883 1185.88 659.609 1186.67C657.648 1187.06 655.295 1187.06 653.334 1187.45H652.942C650.197 1187.84 647.452 1187.84 644.707 1188.24C641.962 1188.63 639.217 1188.63 636.471 1188.63C634.903 1188.63 632.942 1189.02 631.373 1189.02C628.236 1189.02 625.491 1189.41 622.746 1189.41C618.824 1189.41 615.295 1189.8 611.373 1189.8C607.452 1189.8 603.922 1189.8 600.001 1189.8C597.256 1189.8 594.511 1189.8 591.766 1189.8C426.275 1187.45 277.648 1117.25 171.373 1005.88C171.373 1005.88 171.373 1005.49 170.981 1005.49C159.216 994.902 169.413 938.431 216.864 902.745C276.471 857.647 419.217 829.412 419.217 829.412C419.217 829.412 474.511 820.392 679.609 863.137C799.609 888.235 890.981 924.706 941.962 1023.53C952.55 1043.92 963.138 1075.29 925.883 1091.76Z" fill="white"/>
<path d="M680.785 858.823C756.079 874.118 836.471 890.588 898.432 940.392C919.216 957.255 932.942 981.961 944.315 1005.88C949.805 1017.65 955.295 1029.8 959.609 1042.75C961.962 1051.37 965.491 1061.18 963.53 1071.37C963.138 1074.12 960.785 1077.65 958.824 1079.61C949.805 1088.63 940.001 1094.12 930.197 1101.18C872.55 1141.18 806.275 1169.41 737.648 1184.31C584.707 1217.65 419.216 1191.76 284.707 1111.37C240.001 1084.31 198.824 1051.37 163.53 1012.55C159.609 1007.84 159.609 1000 159.609 994.902C160.001 983.137 163.138 971.765 167.06 961.176C176.471 936.863 188.628 912.549 209.413 895.686C224.315 885.49 240.393 876.863 256.864 869.804C308.628 847.843 363.138 832.549 419.216 826.274C423.922 825.882 424.707 832.549 420.001 833.333C366.275 844.314 312.942 860.784 263.138 883.137C245.099 892.157 225.883 900 211.373 914.118C197.648 929.02 187.844 947.451 180.001 966.274C174.903 977.647 171.373 995.686 172.942 1004.71C197.648 1034.12 226.667 1060 258.04 1082.35C429.805 1202.35 690.589 1210.2 873.334 1110.2C889.805 1101.18 905.883 1090.98 921.177 1080.39C928.628 1075.29 936.471 1070.98 942.354 1065.1C942.746 1064.71 942.354 1065.1 942.354 1065.49C942.354 1065.88 941.962 1066.27 941.962 1066.27C942.354 1061.57 940.785 1055.29 938.824 1049.02C931.765 1026.27 920.393 1002.35 908.236 981.569C889.02 950.588 856.471 930.98 823.53 915.294C800.785 904.706 776.864 896.471 752.55 888.627C728.236 880.784 703.53 874.118 678.824 868.235C672.55 866.667 674.511 857.647 680.785 858.823Z" fill="black"/>
<path d="M1056.08 1334.9H64.3162C64.3162 1334.9 122.748 1211.76 148.63 1071.37C166.669 974.117 180.002 917.255 230.591 885.882C266.277 863.921 366.669 832.157 438.042 821.96C467.061 818.039 524.708 813.725 574.512 817.647C612.159 822.353 689.806 844.313 719.61 852.549C764.316 865.098 861.179 902.353 903.924 941.568C920.787 957.255 960.787 1035.69 986.669 1149.41C1016.47 1278.82 1056.08 1334.9 1056.08 1334.9Z" fill="black"/>
<path d="M1065.1 1339.61C775.295 1342.35 350.981 1348.24 64.7069 1347.06C56.0795 1347.45 49.805 1337.65 53.7265 1329.8C91.3736 1246.67 120.001 1158.04 137.648 1068.24C152.158 998.039 161.177 909.412 232.158 872.549C267.06 854.902 303.923 843.137 341.177 832.157C406.668 812.941 476.079 803.529 544.315 805.49C554.903 805.882 565.883 806.274 576.864 807.059C600.393 810.588 623.53 816.47 646.276 822.353C666.668 827.451 687.452 833.333 707.452 839.215C709.805 840.392 710.589 845.098 711.766 847.451C713.334 850.196 715.295 849.804 718.04 848.627C719.217 848.235 720.393 847.451 721.57 847.843C724.315 848.235 728.236 849.804 730.981 850.588C791.766 870.196 852.942 893.333 904.315 932.157C911.766 937.647 917.648 945.098 922.354 952.941C931.766 967.843 939.609 983.137 946.668 998.823C967.844 1045.49 983.53 1094.51 995.295 1144.31C1010.59 1206.67 1028.63 1269.41 1061.18 1325.1L1062.75 1327.45L1063.53 1328.63C1065.88 1330.59 1066.67 1336.47 1065.1 1339.61ZM1047.06 1330.2C1045.1 1332.55 1045.49 1337.65 1047.06 1339.61L1046.67 1338.82L1045.88 1337.25C1027.84 1309.02 1014.51 1277.65 1003.14 1246.67C991.374 1214.9 982.354 1181.18 974.511 1148.23C963.138 1099.61 948.236 1051.76 928.236 1006.27C919.609 987.059 910.981 967.843 898.04 951.764C890.589 944.313 881.962 938.039 872.942 932.157C827.844 903.137 777.256 881.961 726.276 865.49C724.315 864.706 719.609 863.529 717.256 862.745C714.903 861.961 714.903 855.294 713.334 853.725C709.805 850.588 705.883 859.215 702.354 858.431C682.354 852.941 661.57 847.451 641.177 842.745C616.864 837.255 592.942 830.98 568.628 829.019C461.178 821.961 352.55 844.706 253.726 887.451C205.883 907.059 187.844 951.372 176.472 998.823C166.276 1038.82 160.393 1082.35 150.981 1122.74C132.942 1197.65 107.844 1269.8 76.0795 1340.39L65.0991 1323.14C343.53 1322.35 764.707 1326.67 1047.06 1330.2Z" fill="black"/>
<path d="M717.644 963.138C709.409 1003.53 656.076 1027.84 566.272 991.373C472.939 953.726 432.546 863.922 422.35 837.255C477.644 733.726 439.213 661.961 439.213 661.961C566.664 650.981 678.037 800 678.037 800L695.292 873.726C696.86 880 699.997 885.491 704.703 889.412C712.939 903.922 722.743 937.255 717.644 963.138Z" fill="white"/>
<path d="M420.391 838.432C427.842 827.059 432.548 813.726 435.685 800.785C441.568 773.726 443.529 746.275 443.921 718.824V708.628C442.744 698.432 439.215 687.844 435.293 678.432C430.195 665.883 448.627 658.04 454.509 670.589C455.293 672.157 455.293 674.902 455.293 676.471C456.47 729.804 458.823 798.432 425.097 842.746C422.744 845.099 418.038 841.569 420.391 838.432Z" fill="black"/>
<path d="M682.351 799.216C688.233 802.746 690.194 807.452 690.978 812.158C693.331 821.569 692.547 831.766 694.9 841.569C696.861 850.981 702.743 860.001 704.312 869.805C706.272 880.001 712.155 901.569 714.508 912.158C715.292 914.511 713.723 917.256 710.978 917.648C709.41 918.04 708.233 917.648 707.057 916.864C701.959 912.55 699.606 908.236 696.469 902.746C691.371 893.334 687.841 884.707 684.704 874.118C681.959 864.707 683.135 854.511 680.782 844.707C678.821 835.295 673.331 826.275 671.37 816.471C670.194 811.765 669.802 806.667 673.331 800.785C675.684 798.432 679.606 797.648 682.351 799.216Z" fill="black"/>
<path d="M710.587 902.745C635.685 898.824 574.509 875.294 514.901 769.02C565.097 813.334 624.313 830.196 686.666 838.04L694.901 874.118C696.47 880.392 705.882 898.824 710.587 902.745Z" fill="black"/>
<path d="M707.452 888.236C720.785 913.334 728.628 944.706 720.393 972.549C714.118 992.157 696.079 1006.67 676.471 1012.16C630.981 1024.31 578.432 1005.1 538.04 983.53C488.236 955.687 451.373 909.02 427.844 858.04C426.275 854.118 431.765 850.981 434.118 854.902C442.354 871.373 451.765 887.451 462.354 901.961C472.942 916.863 485.099 930.589 498.824 942.745C538.824 978.824 592.942 1001.18 647.06 1001.18C702.746 999.608 723.922 970.196 710.981 916.079C709.02 907.451 705.883 898.432 701.569 890.981C699.216 887.843 705.099 884.314 707.452 888.236Z" fill="black"/>
<path d="M859.215 417.255C866.274 450.196 869.803 476.863 850.587 564.706C831.764 652.157 877.646 670.196 769.019 810.196C724.705 867.451 617.254 851.373 530.195 792.157C500.783 772.157 488.234 720.785 466.274 684.314C449.019 655.687 441.176 685.49 418.431 660.785C387.45 627.059 350.195 559.216 368.627 439.216C398.431 244.706 552.548 221.961 666.666 243.53C781.568 265.49 840.391 330.588 859.215 417.255Z" fill="white"/>
<path d="M438.038 695.686C429.019 680.392 417.254 667.059 406.274 652.941C395.685 638.432 387.058 622.353 379.999 605.883C333.333 491.373 351.372 330.196 465.882 262.745C513.333 235.294 570.587 228.628 623.921 232.941C738.038 241.177 842.744 293.726 867.45 414.51C880.784 467.843 862.744 522.745 852.548 574.902C847.842 600.785 851.764 627.451 851.372 654.118C850.98 681.177 843.529 708.235 833.333 733.334C827.058 750.588 816.078 765.882 804.705 780C785.882 802.745 767.058 825.883 743.136 843.53C737.646 847.451 727.842 849.412 721.176 850.196C702.744 852.941 684.705 853.726 666.274 852.549C594.117 849.412 516.862 814.51 487.842 744.706C486.666 741.961 490.587 740 492.156 742.353C529.803 801.961 598.823 831.373 667.45 835.294C688.627 836.471 710.195 836.079 730.98 831.765C741.176 826.667 750.195 817.647 758.823 809.412C779.999 788.235 801.568 765.49 816.862 739.608C835.293 704.706 845.489 666.667 842.352 627.059C841.568 609.412 841.176 590.981 844.705 573.334C847.842 555.686 851.764 538.824 854.117 520.785C856.47 503.53 857.646 485.883 857.646 468.628C855.685 418.039 839.215 365.883 807.058 326.667C736.078 238.432 568.235 215.294 473.725 275.686C414.117 312.549 386.274 381.569 377.254 448.628C363.529 529.02 367.45 608.235 431.372 666.667L450.195 686.275C457.646 694.902 444.313 705.098 438.038 695.686Z" fill="black"/>
<path d="M484.311 570.98C484.311 570.98 472.155 512.157 414.9 519.215C365.488 525.49 348.233 643.921 460.39 676.863" fill="white"/>
<path d="M455.293 625.49C446.274 620.392 439.999 611.765 439.607 601.176C439.999 593.333 441.176 584.314 439.215 576.471C438.038 569.02 430.195 567.059 424.313 567.451C418.038 568.627 414.117 576.471 412.94 582.745C412.94 583.137 412.548 584.314 412.548 584.706C412.156 586.667 409.019 586.667 408.235 584.706C403.137 569.412 414.509 552.549 430.98 554.51C454.117 556.078 457.254 580.392 452.94 598.823C450.587 606.667 453.725 613.725 458.038 620.392L458.823 621.569C460.784 623.921 457.646 627.059 455.293 625.49Z" fill="black"/>
<path d="M769.018 529.412C774.9 557.255 785.881 583.137 799.606 607.451C811.763 637.255 780.39 665.49 752.547 664.313C749.41 664.313 749.018 660 751.763 659.215C769.41 653.725 785.488 641.961 788.234 623.921C789.41 618.431 787.841 613.725 785.096 609.019C772.155 584.706 764.312 556.862 766.273 529.412C766.273 527.451 769.018 527.451 769.018 529.412Z" fill="black"/>
<path d="M482.352 571.373C473.332 548.235 453.725 526.275 427.45 526.667C425.097 526.275 421.176 527.059 418.823 527.059C412.156 527.451 406.666 529.804 401.568 534.51C376.47 559.608 380.783 603.922 401.176 631.765C408.234 641.569 417.254 650.196 427.45 657.255C437.646 664.314 449.019 669.804 461.176 674.51C463.921 675.294 462.744 679.608 459.999 679.216C433.725 673.726 408.627 660.784 391.372 639.216C364.705 607.059 359.215 553.333 390.979 521.961C398.038 515.686 407.842 510.98 417.646 510.98C420.783 510.98 425.489 510.196 428.627 510.98C445.097 511.765 460.783 520 470.979 532.941C479.999 543.922 485.097 557.255 486.666 570.588C486.666 572.941 483.136 573.726 482.352 571.373Z" fill="black"/>
<path d="M739.216 703.529C714.118 727.451 666.667 708.235 654.118 679.216C652.549 675.686 656.471 672.549 659.608 674.117C666.275 677.647 672.157 681.176 678.432 683.921C696.471 692.157 715.294 698.823 735.294 696.863C739.216 696.078 741.961 700.784 739.216 703.529Z" fill="black"/>
<path d="M641.176 541.569C641.176 541.961 641.176 542.353 641.176 542.353L640.784 553.334C640.392 562.746 632.549 569.804 623.137 569.412C613.725 569.02 606.666 560.785 607.451 551.765L607.843 540.785C607.843 538.824 608.627 536.471 609.411 534.902L640.784 536.471C640.784 538.04 641.176 539.608 641.176 541.569Z" fill="black"/>
<path d="M805.096 550.197L804.704 560.393C804.312 569.02 796.861 575.687 788.234 575.295C779.606 574.902 772.939 567.451 773.332 558.824L773.724 548.628C773.724 546.667 774.116 544.706 774.9 543.138L804.312 544.314C804.704 546.275 805.096 548.236 805.096 550.197Z" fill="black"/>
<path d="M680.39 487.843C689.018 489.02 695.685 480 692.547 471.373C690.979 466.667 688.234 462.353 683.92 459.608C670.587 451.373 620.783 450.589 594.508 469.412C570.979 486.667 641.175 482.353 680.39 487.843Z" fill="black"/>
<path d="M789.018 492.157C781.959 492.157 777.645 483.138 781.175 475.687C783.135 471.765 785.881 468.236 789.802 466.275C801.959 460.393 834.508 463.922 849.018 483.922C861.959 501.569 821.567 491.765 789.018 492.157Z" fill="black"/>
<path d="M666.271 541.569L601.565 540.392C593.722 540 594.114 528.236 601.958 528.628L666.663 533.334C672.154 533.726 671.761 541.569 666.271 541.569Z" fill="black"/>
<path d="M821.569 548.235L773.725 549.02C765.882 549.02 765.49 537.647 773.333 537.255C773.725 537.255 773.725 537.255 774.118 537.255L821.961 542.353C825.49 542.745 825.098 547.843 821.569 548.235Z" fill="black"/>
<path d="M425.88 663.922C434.507 669.804 447.056 676.079 447.056 676.079C447.056 676.079 449.409 710.981 449.017 723.137C448.625 734.51 444.311 769.412 444.311 769.412C444.311 769.412 433.723 710.196 402.35 677.255C385.095 659.216 357.252 639.216 340.782 569.02L356.86 571.765C356.86 571.765 367.448 538.432 367.448 540.784C367.448 542.745 367.448 574.902 367.448 574.902L377.252 575.686C375.292 605.098 389.409 639.216 425.88 663.922Z" fill="#D6D6D6"/>
<path d="M429.411 658.824C436.862 663.529 445.097 667.843 452.94 671.765L453.332 675.294C454.117 689.412 456.077 708.627 455.685 722.745C454.509 748.627 448.627 778.824 445.489 804.314C438.038 766.667 430.195 725.098 407.842 692.941C397.254 677.647 381.176 665.882 369.803 650.196C351.764 626.667 341.568 598.039 334.509 569.804L332.548 561.177C338.038 561.961 351.764 564.314 357.254 565.49L350.587 569.412L355.685 553.333C356.47 550.98 358.823 543.529 359.607 541.176C360.391 539.608 360.783 537.647 361.96 536.078C365.489 531.765 372.548 534.51 372.156 540.392V574.118L366.666 568.235L375.685 574.902C378.43 610.196 399.999 641.176 429.411 658.824ZM424.313 666.667C394.117 646.275 372.156 612.549 372.94 575.294L376.47 579.608L366.666 580.392L361.96 580.784C361.176 576.863 361.568 545.49 361.568 540.784V540.392V540.784C361.568 541.176 361.568 541.569 361.96 541.961C363.136 546.275 369.411 547.059 371.764 543.922C372.156 543.529 372.156 543.137 372.548 542.745L372.156 543.529C370.979 547.059 368.627 553.726 367.45 557.255C366.274 560.784 361.96 574.51 360.783 578.039C357.254 577.255 343.528 575.294 339.607 574.51L346.274 567.451C354.901 603.922 369.803 638.431 398.038 664.314C427.45 690.98 441.96 729.804 450.195 768.235L438.43 768.627C441.96 746.275 446.274 722.353 444.313 699.608L443.136 676.471L445.097 679.608C438.038 675.294 430.979 671.373 424.313 666.667Z" fill="black"/>
<path d="M923.138 518.824L893.334 525.098C892.55 564.706 890.981 593.333 890.981 593.333H845.883C845.883 593.333 839.609 570.588 846.275 507.059C848.628 486.667 860.785 462.745 858.432 445.882C854.118 414.902 843.922 390.196 834.118 375.294C815.687 358.823 782.354 382.353 780.785 383.529L784.314 375.294C774.511 381.569 767.452 387.843 767.452 387.843C767.452 387.843 763.138 378.823 754.903 367.059C755.295 370.98 755.687 374.902 755.295 378.039C755.295 378.039 749.412 367.843 739.609 356.471C743.53 369.02 742.354 379.608 742.354 379.608C708.236 330.196 678.824 337.255 663.922 346.274C621.569 394.118 619.216 518.824 619.216 518.824L576.863 514.51C576.863 514.51 576.471 500.392 577.648 478.431C568.628 539.216 567.06 593.333 567.06 593.333L487.844 587.451L484.314 570.98C484.314 570.98 472.158 512.157 414.903 519.216C393.334 521.961 377.648 546.274 376.471 575.294L366.667 574.51C366.667 574.51 366.667 542.353 366.667 540.392C366.667 538.431 356.079 571.373 356.079 571.373L324.314 568.627L304.707 563.137C304.707 563.137 324.707 324.706 399.609 264.314C441.961 230.196 472.158 227.059 472.158 227.059C485.883 212.941 514.51 187.843 550.197 185.098C600.785 181.176 842.746 241.961 872.942 304.706C874.118 307.059 875.295 309.804 876.079 312.549C886.667 336.863 913.726 412.941 923.138 518.824Z" fill="black"/>
<path d="M796.471 767.864C802.353 736.883 804.314 705.511 799.216 674.53C797.255 662.766 790.196 643.158 779.216 651.785C774.902 655.315 752.549 662.373 748.235 662.766C735.686 663.942 726.275 662.373 717.255 655.315C707.059 647.079 707.059 643.55 704.706 642.766C663.529 629.04 611.765 615.315 594.902 670.609C581.177 715.707 546.667 760.02 521.176 716.099C501.569 682.766 502.745 619.236 500 605.903C493.333 572.962 483.922 556.883 478.431 561.589C478.431 572.177 481.961 697.275 482.353 703.942C485.098 738.452 489.412 749.432 505.098 771.785C520.784 794.138 575.686 854.922 647.059 860.02C718.824 865.119 758.431 859.236 798.431 813.354C834.51 771.785 835.686 685.511 835.686 685.511C818.039 737.668 805.882 754.922 796.471 767.864ZM634.902 679.628C655.294 657.275 685.098 683.158 717.255 685.511C749.02 687.864 761.961 667.864 764.314 703.158C765.098 711.785 766.275 726.295 765.882 736.099C765.882 736.491 765.882 736.883 765.882 737.275C764.706 748.256 761.177 760.413 750.196 767.079C727.059 781.589 689.804 778.06 665.882 773.354C632.549 766.687 625.49 751.393 623.922 744.334C621.569 714.138 626.667 688.648 634.902 679.628Z" fill="black"/>
<path d="M1130.2 330.588C1368.24 789.02 949.804 1306.27 450.98 1180C227.059 1124.31 47.0589 930.196 9.80403 702.353C-32.5489 475.686 69.804 232.157 261.177 103.922C523.53 -76.4704 887.059 -16.4704 1074.9 241.569C1076.08 242.745 1075.69 244.706 1074.12 245.883C1072.94 247.059 1070.98 246.667 1069.8 245.098C1043.92 211.765 1014.51 181.569 982.353 154.51C929.412 109.412 867.451 74.1179 801.961 50.1963C468.628 -70.588 102.745 130.196 29.804 478.824C-52.5489 869.412 279.608 1229.02 675.686 1175.29C981.177 1136.86 1208.24 854.902 1183.14 548.235C1177.65 474.118 1158.04 400.785 1125.49 333.334C1124.71 332.157 1125.49 330.588 1126.67 329.804C1127.84 329.02 1129.41 329.412 1130.2 330.588Z" fill="black"/>
</g>
</svg>
